<?xml version="1.0" encoding="utf-8"?>
<!-- Generator: Adobe Illustrator 21.0.0, SVG Export Plug-In . SVG Version: 6.00 Build 0)  -->
<svg version="1.1" id="Layer_1" xmlns="http://www.w3.org/2000/svg" xmlns:xlink="http://www.w3.org/1999/xlink" x="0px" y="0px"
	 viewBox="0 0 20 12" style="enable-background:new 0 0 20 12;" xml:space="preserve">
<style type="text/css">
	.st0{fill:#FFFFFF;}
</style>
<path class="st0" d="M20,10.2c0,0.1-0.1,0.4-0.3,0.5l-1,1c-0.1,0.1-0.3,0.3-0.5,0.3c-0.1,0-0.4-0.1-0.5-0.3l-7.6-7.9l-7.8,7.8
	c-0.1,0.1-0.3,0.3-0.5,0.3s-0.4-0.1-0.5-0.3l-1-1C0.1,10.5,0,10.3,0,10.1c0-0.3,0.1-0.4,0.3-0.5l9.3-9.3C9.7,0.2,9.8,0,10.1,0
	c0.3,0,0.4,0.1,0.5,0.3l9.3,9.3C20,9.8,20,10.1,20,10.2z"/>
</svg>
