<?xml version="1.0" encoding="UTF-8" standalone="no"?>
<svg width="60" xmlns="http://www.w3.org/2000/svg" height="60">
 <g>
  <title>background</title>
  <rect id="canvas_background" height="62" width="62" y="-1" x="-1" fill="none"/>
 </g>
 <g>
  <title>Layer 1</title>
  <g id="svg_1" stroke="null">
   <path id="svg_2" d="m57.385 17.304c-7.5458 2.7782-13.295 4.7566-18.353 11.012-4.5061 5.5737-11.012 7.5056-18.353 3.8317v20.026h-3.6709v-49.552c-0.000121-1.0145 0.82075-1.8353 1.8352-1.8353 1.0143 0 1.8356 0.82075 1.8356 1.8353 4.0753 5.9251 11.158 7.2374 18.353 7.3412 11.011 0.16098 18.353 7.341 18.353 7.341zm-33.035 24.346v3.7345c4.3301 0.88575 7.3412 2.7646 7.3412 4.9548 0 3.0396-5.7534 5.506-12.847 5.506-7.0938 0-12.847-2.4664-12.847-5.5066 0-2.1896 3.0108-4.0683 7.3408-4.9542v-3.7345c-6.6668 1.1541-11.012 4.3875-11.012 8.6885 0 5.402 6.7927 9.1765 16.518 9.1765 9.7246 0 16.518-3.7747 16.518-9.1765 0.000242-4.301-4.345-7.5344-11.012-8.6885z" stroke="null" fill="#e7951f"/>
  </g>
 </g>
</svg>
