<svg version="1" xmlns="http://www.w3.org/2000/svg" width="682.667" height="682.667" viewBox="0 0 512.000000 512.000000"><path d="M169.8 42.4c-6.3 1.7-11.1 5.6-13.9 11.3l-2.4 4.8-.3 193.4c-.1 127.6.1 194.6.8 197.1 1.4 5.3 4.8 9.9 9.9 13.5l4.3 3h89.5l4.8-3c3.6-2.2 5.7-4.5 7.7-8.4l2.8-5.3V254.6c0-122.8-.4-195.4-1-197.6-1.3-4.7-6.3-10.6-11.3-13.3-4.1-2.2-5-2.2-45.2-2.4-30.9-.2-42.2.1-45.7 1.1zm77.9 62l2.8 2.4.1 92.9c.1 62-.2 93.5-.9 94.8-2.3 4.4-2.8 4.4-36.5 4.5h-32.3l-2.4-2.5-2.5-2.4V201c0-64 .3-93.8 1.1-95.1.6-1.1 2-2.4 3.2-2.9 1.2-.5 16.2-.9 33.4-.9l31.2-.1 2.8 2.4zM222.1 348c9.9 3.1 16.8 9.2 21.2 18.7 1.8 3.8 2.2 6.6 2.2 13.8 0 8.3-.3 9.5-3.5 15.3-3.7 7-8.8 11.9-15.9 15.4-3.8 1.9-6.2 2.3-14.1 2.3-8.9 0-9.9-.2-15.8-3.4-7-3.8-12-9.2-15.4-16.7-1.7-3.8-2.2-6.8-2.3-13.4 0-7.3.4-9.3 2.8-14.2 3.9-8 12.1-15.2 20-17.7 8-2.6 13-2.6 20.8-.1z"/><path d="M192.7 120.7c-2.9.7-3.7 4.6-3.7 17.4 0 11.5.1 12.1 2.5 14.5l2.5 2.5 20.1-.3c18.5-.3 20.2-.5 21.5-2.2 1-1.5 1.4-5.4 1.4-15.7 0-18.1 1.6-16.9-23.5-16.8-10.4.1-19.8.3-20.8.6zM190.7 222.7c-.4.3-.7 2.8-.7 5.5v4.8l23.3-.2 23.2-.3.3-3.8c.6-6.7.5-6.7-23.8-6.7-11.9 0-22 .3-22.3.7zM190.2 250.2l.3 5.3h46v-10l-23.3-.3-23.3-.2.3 5.2zM190.7 267.7c-.4.3-.7 2.8-.7 5.4 0 3.3.4 4.9 1.6 5.3 3.1 1.2 42.9.7 44.2-.6.7-.7 1.2-2.8 1.2-4.8s-.5-4.1-1.2-4.8c-1.3-1.3-43.9-1.8-45.1-.5zM205.5 361.1c-11.2 4.2-16.5 16.7-11.6 27.4 5.8 12.9 22.5 15.9 32.3 5.8 4.4-4.6 5.8-7.9 5.8-14.2 0-10.3-7.8-18.8-18.1-19.6-2.9-.3-6.7 0-8.4.6zM14.2 44.1c-4.8 2.4-8.8 7.1-10.8 12.6C2.3 59.8 2.1 94.9 2 253.5c0 133.1.3 194.2 1.1 196.8 1.3 4.9 7.3 11.5 12.4 13.8 3.7 1.7 7.5 1.9 45.4 1.9 28.2 0 42.6-.4 45.2-1.1 5-1.6 10.5-6.1 13.2-11.2l2.2-4.2.2-113.5c.2-62.4-.1-151.1-.5-197l-.7-83.5-2.8-4.1c-1.6-2.4-4.9-5.3-7.6-6.8l-4.9-2.6H61.9c-42.2 0-43.5.1-47.7 2.1zm82.2 60l2.6 2v188.3l-2.2 2.3-2.1 2.3H62.4c-17.7 0-33-.3-33.9-.6-4.6-1.8-4.5-.6-4.5-98.4v-92.2l2.9-2.9 2.9-2.9h32c30.8 0 32 .1 34.6 2.1zm-22 244.7c6.4 2.9 14.1 10.4 17.3 17.1 2.3 4.7 2.7 6.9 2.7 14.1.1 7.1-.4 9.4-2.6 14.1-5.5 11.9-16 19-29.3 19.7-11 .6-17.9-2.1-25.6-9.7-7-7-9.9-14.1-9.9-24 0-15.3 8.4-27 23.3-32.3 6.6-2.4 17.5-1.9 24.1 1z"/><path d="M40.1 121.9c-1.9 1.9-2.1 3.3-2.1 15.4 0 9.9.4 13.8 1.4 15.3 1.3 1.7 3 1.9 21.5 2.2l20.1.3 2.5-2.5c2.4-2.4 2.5-3 2.5-15.4 0-9.5-.4-13.3-1.4-14.8-1.3-1.8-3-1.9-22-2.2-19.6-.3-20.6-.2-22.5 1.7zM39.1 223.4c-.7.8-1.1 3.2-.9 5.3l.3 3.8 22.9.3c17.7.2 23.1-.1 23.8-1 1.2-2 1-7.2-.4-8.6-1.9-1.9-44.2-1.7-45.7.2zM38.7 245.7c-1.2 1.1-.8 7.8.5 9.1 1.7 1.7 43.9 1.7 45.6 0 1.3-1.3 1.6-5.6.6-8.2-.5-1.4-3.5-1.6-23.3-1.6-12.5 0-23.1.3-23.4.7zM39.2 268.2c-1.6 1.6-1.6 8 0 9.6.9.9 7.3 1.2 22.4 1.2 18 0 21.5-.2 22.8-1.6 1.9-1.8 2.1-7.5.4-9.2-1.7-1.7-43.9-1.7-45.6 0zM53 361.6c-9.4 4.1-14.4 14.4-11.5 24.1 2.6 8.7 10.3 14.6 19 14.6 14.7 0 24.6-14.8 18.6-27.8-4.7-10.2-16.4-15.1-26.1-10.9zM375.1 103.5c-17.9 4-33.5 7.8-34.8 8.4-5.1 2.3-4.9 4.3 2.3 37.1 3.7 16.8 6.8 31.4 6.8 32.5.1 1.6-1.2 2.2-8 3.7l-8.1 1.9 29.8 134.2c20.2 90.8 30.6 135.7 32.1 138.7 2.8 5.5 9.8 10.5 16.1 11.4 3.6.6 12.3-1.1 44.7-8.4 27.1-6 41.4-9.7 43.7-11.2 4.5-2.7 9-9.8 9.9-15.3.5-3.5-5.1-29.9-29.6-139.7-16.6-74.4-30.3-135.4-30.4-135.5-.1-.1-3.8.6-8.3 1.6-7.6 1.7-8.3 1.7-8.7.2-.3-.9-3.5-14.8-7.1-31-7.5-33.1-7.6-33.6-10.4-35-3.2-1.8-6-1.3-40 6.4zm38.1.3c1.1 1.2 6.4 23 16.8 69.2 8.3 37.1 15.3 68.3 15.6 69.3.3 1 1.3 1.6 2.1 1.5 1.9-.3 2.4 1.3 8.5 28.5l4.1 18.8-2 2.7c-1.9 2.5-4.3 3.2-35.9 10.4-18.6 4.2-35.1 7.7-36.6 7.7-1.5.1-3.8-.9-5.2-2.2-2.1-1.9-3.1-5.3-7.4-25.5-4.6-22-4.8-23.2-2.9-23.2 1.6 0 1.8-.5 1.3-2.6-3.9-15.5-29.7-133.7-29.7-136.3-.1-6.2 1.3-6.8 33.8-14.2 17-3.9 31.1-6.6 32.8-6.3 1.6.2 3.8 1.2 4.7 2.2zm37.4 245.1c26.5 12.4 26.2 49.5-.4 61.9-4.7 2.2-7.1 2.7-14.2 2.7-7.3 0-9.3-.4-14.1-2.8-6.7-3.2-14.2-10.9-17.2-17.5-1.7-3.7-2.2-6.6-2.2-13.7 0-7.8.4-9.7 2.8-14.6 4.5-9.2 14.2-16.8 24-18.9 6.4-1.4 14.6-.2 21.3 2.9z"/><path d="M379.8 126c-19.9 4.5-19.6 4.4-20.7 7.1-.8 2.4 4.2 26.3 6 28.6.6.7 2.2 1.3 3.5 1.3 3.8 0 38.7-8 40.1-9.2.7-.6 1.3-2.4 1.3-4 0-4.2-4.8-24.8-6.1-26.5-1.7-2-5.7-1.5-24.1 2.7zM400.9 225.4c-10.2 2.4-19.1 4.6-19.8 5-1.4.9-.5 7.4 1.3 9.4 1 1 5.2.4 22.2-3.3 11.5-2.6 21.5-5.3 22.3-6 1-1 1.1-2.3.4-5.2-.8-3.4-1.2-3.8-4.3-4-1.9-.1-11.9 1.7-22.1 4.1zM405.9 247.4c-10.3 2.4-19.2 4.6-19.8 5-1.4.9-.5 7.5 1.3 9.4 1 1 5.2.4 22.2-3.3 11.5-2.6 21.5-5.2 22.2-5.9.9-.9 1-2.4.4-5.2-.7-3.6-1.1-3.9-4.2-4.1-1.9-.1-11.9 1.8-22.1 4.1zM410.6 269.5c-10.3 2.4-19.3 4.8-19.8 5.3-1.2 1.2 0 7.8 1.7 9.2 1.5 1.3 42.2-7.4 44.3-9.5 1.1-1 1.1-2.1.2-5.4-1-3.8-1.3-4.1-4.3-4-1.8.1-11.7 2.1-22.1 4.4zM431.5 360.1c-8.2 1.9-15.4 10.8-15.5 19 0 8.2 4 14.7 11.4 18.4 10.4 5.2 21.4 1.6 26.7-8.7 2.1-4.1 2.5-12 .8-16.5-1.8-4.8-7.9-10.2-13.3-11.8-2.7-.8-5.2-1.5-5.5-1.4-.3.1-2.4.5-4.6 1z"/></svg>