<svg version="1" xmlns="http://www.w3.org/2000/svg" width="346.667" height="346.667" viewBox="0 0 260.000000 260.000000"><path d="M35.6 48.5c-8 4.1-7.6-.4-7.6 82.7 0 82.7-.4 78.5 7.2 82.8l4 2.2H129c49.4 0 90.9-.3 92.2-.7 1.3-.4 3.4-1.7 4.6-2.9 5.4-4.8 5.2-1.9 5.2-81.3 0-70.1-.1-74-1.9-77.3-1-1.9-3.4-4.4-5.2-5.5-3.3-2-5.2-2-93.8-2-89.3-.1-90.5-.1-94.5 2zm64.4 5.4c.3 0 .5 3.1.5 6.8l-.1 6.8H78.7l-21.7.1V61c0-3.7.2-6.9.4-7.1.4-.4 41.1-.4 42.6 0zm116 7c.4.1.5 24.8.1 27.3 0 .5-39 .8-86.6.8-47.6 0-86.5-.3-86.6-.8-.7-4.5-.2-12.5.7-12.9.7-.2 17.1-.5 36.6-.6l35.3-.2 3.5-6.7c1.9-3.7 4.1-6.9 4.9-7 1.3-.3 90.7-.1 92.1.1zm-72 37.6c10.8 3.8 20.2 12.5 25.2 23.1 5.8 12.4 4.5 28.8-3.2 39.9-5.4 7.9-14.8 15-23 17.5-16.5 4.9-34 .3-45.3-12-8.8-9.5-11.8-17.9-11.3-31.3.8-17.7 13.8-33.2 32.4-38.2 5.9-1.6 19.3-1.1 25.2 1zm72.5 96.5v7h-86.7c-47.8 0-86.9-.3-86.9-.8-.1-.4-.2-3.5-.3-7l-.1-6.2h174v7z"/><path d="M120.3 111.9c-20.4 6.9-26.4 32.3-11.1 46.7 6.1 5.8 11.4 7.8 20.3 7.8 6.4 0 8.9-.5 12.5-2.3 17.6-9 21.8-29.8 9.1-44.4-7-7.9-20.4-11.3-30.8-7.8zm12.4 10.7c.9 2.5-1 4.9-4.3 5.2-4.7.6-8.2 3.8-9.6 9-1.5 5.1-3.5 6.3-6.2 3.7-3.5-3.5.8-12.8 7.7-17 4.9-2.9 11.4-3.4 12.4-.9z"/></svg>